<svg width="24" height="24" viewBox="0 0 24 24" fill="none" xmlns="http://www.w3.org/2000/svg">
<path d="M10.13 14.3H11.5V18.762C11.5 19.18 11.5 19.536 11.527 19.791C11.541 19.919 11.566 20.07 11.627 20.205C11.6678 20.3021 11.7309 20.3882 11.8111 20.4563C11.8914 20.5244 11.9866 20.5726 12.089 20.597C12.1922 20.6178 12.2989 20.614 12.4003 20.5859C12.5018 20.5577 12.5952 20.506 12.673 20.435C12.7775 20.3378 12.8665 20.2252 12.937 20.101C13.069 19.881 13.218 19.5581 13.394 19.1791L13.408 19.15L16.138 13.25L16.156 13.213C16.437 12.606 16.672 12.099 16.794 11.686C16.92 11.256 16.962 10.805 16.699 10.392C16.436 9.98005 16.008 9.82905 15.565 9.76305C15.139 9.70005 14.58 9.70005 13.911 9.70005H12.5V5.23805C12.5 4.82005 12.5 4.46405 12.473 4.20905C12.461 4.06676 12.4272 3.92714 12.373 3.79505C12.3322 3.69801 12.2691 3.61195 12.1888 3.54384C12.1086 3.47574 12.0134 3.4275 11.911 3.40305C11.8078 3.38144 11.7009 3.38487 11.5993 3.41305C11.4977 3.44124 11.4043 3.49336 11.327 3.56505C11.2225 3.66227 11.1334 3.77491 11.063 3.89905C10.931 4.11905 10.782 4.44205 10.606 4.82105L10.592 4.85005L7.86198 10.75L7.84398 10.787C7.56298 11.394 7.32798 11.901 7.20598 12.314C7.07998 12.744 7.03698 13.195 7.30098 13.608C7.56398 14.02 7.99198 14.1711 8.43498 14.2371C8.86098 14.3001 9.41998 14.3 10.089 14.3H10.13Z" stroke="white" stroke-opacity="0.8"/>
</svg>
