<svg width="200" height="270" viewBox="0 0 200 270" fill="none" xmlns="http://www.w3.org/2000/svg">
<rect width="200" height="270" fill="url(#paint0_radial_34_27)"/>
<g clip-path="url(#clip0_34_27)">
<path d="M28.6646 103.89L28.2101 104.272L28.6646 103.89C19.2509 92.6886 27.2146 75.5938 41.8467 75.5938H158.525C173.156 75.5938 181.12 92.6886 171.706 103.89L126.102 158.158C120.348 165.004 120.348 174.995 126.102 181.841L171.706 236.109C181.12 247.312 173.157 264.406 158.525 264.406H41.8467C27.2146 264.406 19.2509 247.311 28.6647 236.109L74.2701 181.841C80.0235 174.995 80.0235 165.004 74.2699 158.158L28.6646 103.89Z" fill="url(#paint1_linear_34_27)" stroke="white" stroke-width="1.1875"/>
</g>
<defs>
<radialGradient id="paint0_radial_34_27" cx="0" cy="0" r="1" gradientUnits="userSpaceOnUse" gradientTransform="translate(106 270) rotate(-90.3183) scale(270.004 200.003)">
<stop stop-color="#B0B9FF"/>
<stop offset="1" stop-opacity="0"/>
</radialGradient>
<linearGradient id="paint1_linear_34_27" x1="158.849" y1="75" x2="28.419" y2="191.009" gradientUnits="userSpaceOnUse">
<stop stop-color="#B0B9FF"/>
<stop offset="1" stop-color="#E7E9FF"/>
</linearGradient>
<clipPath id="clip0_34_27">
<rect width="200" height="200" fill="white" transform="translate(0 70)"/>
</clipPath>
</defs>
</svg>
