<svg width="24" height="24" viewBox="0 0 24 24" fill="none" xmlns="http://www.w3.org/2000/svg">
<path d="M14.706 4.31301H9.29401C8.63978 4.31275 7.9919 4.4414 7.3874 4.69161C6.78291 4.94183 6.23363 5.3087 5.77097 5.77127C5.30831 6.23383 4.94133 6.78303 4.691 7.38748C4.44066 7.99193 4.31188 8.63978 4.31201 9.29401V14.706C4.31175 15.3603 4.44043 16.0083 4.69071 16.6129C4.94098 17.2174 5.30795 17.7667 5.77062 18.2294C6.23329 18.6921 6.78261 19.059 7.38717 19.3093C7.99174 19.5596 8.63969 19.6883 9.29401 19.688H14.706C15.3603 19.6883 16.0083 19.5596 16.6129 19.3093C17.2174 19.059 17.7667 18.6921 18.2294 18.2294C18.6921 17.7667 19.059 17.2174 19.3093 16.6129C19.5596 16.0083 19.6883 15.3603 19.688 14.706V9.29401C19.6883 8.63969 19.5596 7.99174 19.3093 7.38717C19.059 6.78261 18.6921 6.23329 18.2294 5.77062C17.7667 5.30795 17.2174 4.94098 16.6129 4.69071C16.0083 4.44043 15.3603 4.31175 14.706 4.31201V4.31301Z" stroke="white" stroke-opacity="0.8" stroke-width="1.5"/>
<path d="M19.606 15.588H21.225C21.4968 15.588 21.7576 15.48 21.9498 15.2877C22.142 15.0955 22.25 14.8348 22.25 14.563V9.43796C22.25 9.16612 22.142 8.9054 21.9498 8.71318C21.7576 8.52095 21.4968 8.41296 21.225 8.41296H19.605M4.395 15.588H2.775C2.6404 15.588 2.50711 15.5615 2.38275 15.5099C2.25839 15.4584 2.1454 15.3829 2.05022 15.2877C1.95504 15.1926 1.87953 15.0796 1.82802 14.9552C1.77651 14.8309 1.75 14.6976 1.75 14.563V9.43796C1.75 9.16612 1.85799 8.9054 2.05022 8.71318C2.24244 8.52095 2.50315 8.41296 2.775 8.41296H4.395" stroke="white" stroke-opacity="0.8" stroke-width="1.5"/>
<path d="M2.76501 8.41299V4.31299M21.225 8.41299L21.215 4.31299M9.95001 15.237C10.4951 15.778 11.232 16.0817 12 16.0817C12.768 16.0817 13.5049 15.778 14.05 15.237M7.88001 10.975L8.90301 9.94999L9.92801 10.975M14.03 10.975L15.055 9.94999L16.079 10.975" stroke="white" stroke-opacity="0.8" stroke-width="1.5" stroke-linecap="round" stroke-linejoin="round"/>
</svg>
