<svg width="576" height="155" viewBox="0 0 576 155" fill="none" xmlns="http://www.w3.org/2000/svg">
<path d="M3.89793 107.819C6.97655 107.306 9.45655 106.237 11.3379 104.612C13.2193 102.988 14.16 100.08 14.16 95.8897V31.7517C14.16 27.5614 13.2193 24.6538 11.3379 23.029C9.54207 21.4041 7.06207 20.2924 3.89793 19.6938V17.6414H50.8469C56.32 17.6414 61.1945 18.7103 65.4703 20.8483C69.8317 22.9007 73.2097 25.7655 75.6041 29.4428C77.9986 33.0345 79.1959 37.0966 79.1959 41.629C79.1959 47.2731 77.3145 51.8055 73.5517 55.2262C69.8745 58.6469 65.2565 61.1697 59.6979 62.7945C66.5393 64.2483 72.1834 66.8138 76.6303 70.491C81.1628 74.1683 83.429 79.2993 83.429 85.8841C83.429 91.0152 82.0179 95.4193 79.1959 99.0966C76.3738 102.688 72.5683 105.425 67.7793 107.306C63.0759 109.102 57.9021 110 52.2579 110H3.89793V107.819ZM45.8441 105.767C51.9159 105.767 56.3628 104.142 59.1848 100.892C62.0069 97.5572 63.4179 92.5117 63.4179 85.7559C63.4179 79.2566 61.8359 74.2966 58.6717 70.8759C55.5076 67.4552 50.9752 65.7448 45.0745 65.7448H34.0428V105.767H45.8441ZM44.8179 60.6138C49.6924 60.6138 53.2841 58.9462 55.5931 55.611C57.9876 52.1903 59.1848 47.5297 59.1848 41.629C59.1848 35.5572 57.9448 30.7683 55.4648 27.2621C52.9848 23.6703 49.3076 21.8745 44.4331 21.8745H34.0428V60.6138H44.8179ZM85.2856 119.364L86.9532 118.338C91.1435 120.989 95.4194 122.314 99.7808 122.314C102.688 122.314 105.211 121.673 107.349 120.39C109.487 119.193 111.026 117.483 111.967 115.259L112.224 114.49L89.0056 57.7917C87.5518 54.1145 86.0125 51.5917 84.3877 50.2235C82.8484 48.7697 81.138 47.7862 79.2567 47.2731V45.349H113.763V47.2731C111.796 47.7007 110.257 48.2993 109.145 49.069C108.119 49.7531 107.606 50.9931 107.606 52.789C107.606 54.0717 107.99 55.7393 108.76 57.7917L121.716 91.0152L135.057 57.7917C135.826 55.8248 136.211 54.2428 136.211 53.0455C136.211 51.2497 135.57 49.9669 134.287 49.1972C133.004 48.3421 131.251 47.7007 129.028 47.2731V45.349H151.091V47.2731C148.953 47.7862 146.986 48.7697 145.19 50.2235C143.395 51.5917 141.727 54.1145 140.188 57.7917L115.815 117.44C113.164 123.939 110.128 128.771 106.708 131.935C103.287 135.099 99.396 136.681 95.0346 136.681C91.4429 136.681 87.4235 135.57 82.9767 133.346L85.2856 119.364ZM172.039 111.283C166.566 111.283 162.29 109.53 159.211 106.023C156.218 102.432 154.722 97.3862 154.722 90.8869V50.0952H145.357V48.0428C150.489 46.2469 155.277 43.5103 159.724 39.8331C164.171 36.1559 167.849 31.6662 170.756 26.3641H173.322V45.349H190.895V50.0952H173.322L173.45 89.091C173.45 92.5972 174.134 95.4193 175.502 97.5572C176.956 99.6952 179.008 100.764 181.66 100.764C184.396 100.764 187.133 99.5669 189.869 97.1724L191.537 97.6855C189.57 101.79 187.004 105.083 183.84 107.563C180.676 110.043 176.742 111.283 172.039 111.283ZM220.443 111.283C215.141 111.283 210.095 110.043 205.306 107.563C200.603 104.997 196.754 101.192 193.761 96.1462C190.768 91.1007 189.272 84.9862 189.272 77.8028C189.272 70.9614 190.512 65.0607 192.992 60.1007C195.557 55.0552 199.149 51.2069 203.767 48.5559C208.385 45.9048 213.687 44.5793 219.673 44.5793C226.087 44.5793 231.432 46.0759 235.707 49.069C239.983 51.9766 243.147 55.8248 245.2 60.6138C247.252 65.4028 248.236 70.6193 248.15 76.2635H208.513C208.941 84.4731 210.95 90.6731 214.542 94.8634C218.134 99.0538 222.581 101.149 227.883 101.149C231.132 101.149 234.339 100.379 237.503 98.84C240.667 97.2152 243.618 94.8207 246.354 91.6566L248.022 92.0414C246.91 95.12 245.114 98.1559 242.634 101.149C240.154 104.057 236.99 106.494 233.142 108.461C229.379 110.342 225.146 111.283 220.443 111.283ZM229.807 72.1586C229.807 66.1724 228.952 60.7848 227.241 55.9959C225.616 51.1214 223.051 48.6841 219.545 48.6841C215.953 48.6841 213.259 51.1641 211.463 56.1241C209.667 61.0841 208.684 66.429 208.513 72.1586H229.807ZM246.386 107.819C249.465 107.306 251.945 106.237 253.826 104.612C255.707 102.988 256.648 100.08 256.648 95.8897V31.7517C256.648 27.5614 255.707 24.6538 253.826 23.029C252.03 21.4041 249.55 20.2924 246.386 19.6938V17.6414H293.335C298.808 17.6414 303.683 18.7103 307.958 20.8483C312.32 22.9007 315.698 25.7655 318.092 29.4428C320.487 33.0345 321.684 37.0966 321.684 41.629C321.684 47.2731 319.803 51.8055 316.04 55.2262C312.363 58.6469 307.745 61.1697 302.186 62.7945C309.027 64.2483 314.672 66.8138 319.118 70.491C323.651 74.1683 325.917 79.2993 325.917 85.8841C325.917 91.0152 324.506 95.4193 321.684 99.0966C318.862 102.688 315.056 105.425 310.267 107.306C305.564 109.102 300.39 110 294.746 110H246.386V107.819ZM288.332 105.767C294.404 105.767 298.851 104.142 301.673 100.892C304.495 97.5572 305.906 92.5117 305.906 85.7559C305.906 79.2566 304.324 74.2966 301.16 70.8759C297.996 67.4552 293.463 65.7448 287.563 65.7448H276.531V105.767H288.332ZM287.306 60.6138C292.181 60.6138 295.772 58.9462 298.081 55.611C300.476 52.1903 301.673 47.5297 301.673 41.629C301.673 35.5572 300.433 30.7683 297.953 27.2621C295.473 23.6703 291.796 21.8745 286.921 21.8745H276.531V60.6138H287.306ZM323.135 108.076C325.871 107.563 328.052 106.537 329.677 104.997C331.387 103.458 332.242 100.721 332.242 96.7876V58.5614C332.242 54.6276 331.387 51.891 329.677 50.3517C328.052 48.8124 325.871 47.7862 323.135 47.2731V45.349H350.842V66.2579C352.211 60.0152 354.904 54.8841 358.924 50.8648C363.029 46.76 367.775 44.7076 373.162 44.7076C374.36 44.7076 375.6 44.8359 376.882 45.0924L374.06 62.4097H372.906C370.597 61.3835 368.331 60.8703 366.107 60.8703C362.088 60.8703 358.667 62.4524 355.845 65.6166C353.109 68.6952 351.441 72.9283 350.842 78.3159V96.7876C350.842 100.721 351.655 103.458 353.28 104.997C354.904 106.537 357.085 107.563 359.822 108.076V110H323.135V108.076ZM404.623 110.77C401.031 110.77 397.696 110 394.617 108.461C391.624 106.836 389.187 104.441 387.305 101.277C385.51 98.1131 384.612 94.3503 384.612 89.989V58.5614C384.612 54.6276 383.799 51.891 382.174 50.3517C380.55 48.8124 378.412 47.7862 375.761 47.2731V45.349H403.212V87.4234C403.212 91.4428 404.195 94.3931 406.162 96.2745C408.129 98.1559 410.652 99.0966 413.73 99.0966C415.697 99.0966 417.664 98.7117 419.631 97.9421C421.598 97.0869 423.394 95.9324 425.019 94.4786V58.5614C425.019 54.6276 424.334 51.891 422.966 50.3517C421.683 48.8124 419.93 47.7862 417.707 47.2731V45.349H443.747V96.7876C443.747 100.721 444.559 103.458 446.184 104.997C447.809 106.537 449.947 107.563 452.598 108.076V110H430.278C428.054 107.092 426.344 103.458 425.147 99.0966C422.838 102.603 419.887 105.425 416.296 107.563C412.79 109.701 408.899 110.77 404.623 110.77ZM478.475 111.283C471.035 111.283 462.825 109.487 453.846 105.895L453.974 87.1669H456.155C459.747 94.3503 463.339 99.4386 466.93 102.432C470.522 105.425 474.328 106.921 478.347 106.921C481.597 106.921 484.119 106.152 485.915 104.612C487.797 103.073 488.737 101.106 488.737 98.7117C488.737 95.8897 487.412 93.5379 484.761 91.6566C482.11 89.7752 477.748 87.5517 471.677 84.9862C458.678 79.5131 452.179 72.6717 452.179 64.4621C452.179 60.6993 453.248 57.3214 455.385 54.3283C457.609 51.2497 460.645 48.8552 464.493 47.1448C468.427 45.4345 472.917 44.5793 477.962 44.5793C485.317 44.5793 492.757 46.1186 500.282 49.1972L500.154 66.6428H497.845C495.108 59.8869 492.072 55.269 488.737 52.789C485.488 50.2235 482.024 48.9407 478.347 48.9407C475.012 48.9407 472.361 49.7103 470.394 51.2497C468.427 52.7035 467.443 54.6276 467.443 57.0221C467.443 59.16 468.299 60.8276 470.009 62.0248C471.719 63.2221 474.627 64.6331 478.732 66.2579L484.632 68.6952C491.046 71.5172 495.792 74.6814 498.871 78.1876C501.95 81.6938 503.489 85.7131 503.489 90.2455C503.489 96.7448 501.094 101.876 496.305 105.639C491.602 109.401 485.659 111.283 478.475 111.283ZM498.356 108.076C501.092 107.563 503.273 106.537 504.898 104.997C506.608 103.458 507.463 100.721 507.463 96.7876V31.3669C507.463 27.4331 506.608 24.8676 504.898 23.6703C503.273 22.3876 501.049 21.7035 498.227 21.6179L497.971 19.6938L526.063 15.0759V57.0221C528.116 53.3448 530.852 50.3517 534.273 48.0428C537.779 45.7338 541.756 44.5793 546.202 44.5793C549.794 44.5793 553.129 45.3917 556.208 47.0166C559.287 48.5559 561.767 50.9076 563.648 54.0717C565.529 57.2359 566.47 60.9986 566.47 65.36V96.7876C566.47 100.721 567.282 103.458 568.907 104.997C570.532 106.537 572.67 107.563 575.321 108.076V110H540.302V108.076C542.525 107.563 544.321 106.537 545.689 104.997C547.058 103.458 547.742 100.721 547.742 96.7876V67.9255C547.742 63.9062 546.716 60.9559 544.663 59.0745C542.696 57.1931 540.216 56.2524 537.223 56.2524C533.289 56.2524 529.569 57.7917 526.063 60.8703V96.7876C526.063 100.721 526.79 103.458 528.244 104.997C529.783 106.537 531.793 107.563 534.273 108.076V110H498.356V108.076Z" fill="url(#paint0_linear_42_9)" fill-opacity="0.2"/>
<path d="M9 101.192H2.016V103.736H0.48V96.812H2.016V99.356H9V101.192ZM9 80.6589H0.48V74.7309H2.016V78.8349H3.972V74.8749H5.484V78.8349H7.464V74.6349H9V80.6589ZM9 58.782L0.48 55.71V53.55L9 50.478V52.374L7.188 52.998V56.274L9 56.898V58.782ZM5.688 55.758V53.502L2.4 54.63L5.688 55.758ZM9 34.2995H0.48V31.8635L6.684 29.6915L0.48 27.5315V25.0955H9V26.9195H3.48L8.976 28.9235V30.4835L3.48 32.4755H9V34.2995Z" fill="black"/>
<path d="M9 101.192H2.016V103.736H0.48V96.812H2.016V99.356H9V101.192ZM9 80.6589H0.48V74.7309H2.016V78.8349H3.972V74.8749H5.484V78.8349H7.464V74.6349H9V80.6589ZM9 58.782L0.48 55.71V53.55L9 50.478V52.374L7.188 52.998V56.274L9 56.898V58.782ZM5.688 55.758V53.502L2.4 54.63L5.688 55.758ZM9 34.2995H0.48V31.8635L6.684 29.6915L0.48 27.5315V25.0955H9V26.9195H3.48L8.976 28.9235V30.4835L3.48 32.4755H9V34.2995Z" fill="white" fill-opacity="0.7"/>
<defs>
<linearGradient id="paint0_linear_42_9" x1="573.917" y1="56.9869" x2="516.491" y2="280.769" gradientUnits="userSpaceOnUse">
<stop stop-color="#FBCB50"/>
<stop offset="0.428342" stop-color="#D87297"/>
<stop offset="1" stop-color="#E36658"/>
</linearGradient>
</defs>
</svg>
