<svg width="24" height="24" viewBox="0 0 24 24" fill="none" xmlns="http://www.w3.org/2000/svg">
<path d="M12 8C12.7956 8 13.5587 7.68393 14.1213 7.12132C14.6839 6.55871 15 5.79565 15 5C15 4.20435 14.6839 3.44129 14.1213 2.87868C13.5587 2.31607 12.7956 2 12 2C11.2044 2 10.4413 2.31607 9.87868 2.87868C9.31607 3.44129 9 4.20435 9 5C9 5.79565 9.31607 6.55871 9.87868 7.12132C10.4413 7.68393 11.2044 8 12 8ZM12 8V9M12 9C12 9.932 12 10.398 12.178 10.765C12.414 11.255 12.868 11.645 13.44 11.848C13.87 12 14.413 12 15.5 12C16.587 12 17.13 12 17.56 12.152C18.131 12.355 18.586 12.745 18.822 13.235C19 13.602 19 14.068 19 15V16M12 9C12 9.932 12 10.398 11.822 10.765C11.586 11.255 11.132 11.645 10.56 11.848C10.13 12 9.587 12 8.5 12C7.413 12 6.87 12 6.44 12.152C5.869 12.355 5.414 12.745 5.178 13.235C5 13.602 5 14.068 5 15V16" stroke="white" stroke-opacity="0.8" stroke-width="1.5" stroke-linecap="round" stroke-linejoin="round"/>
<path d="M8 19C8 19.7956 7.68393 20.5587 7.12132 21.1213C6.55871 21.6839 5.79565 22 5 22C4.20435 22 3.44129 21.6839 2.87868 21.1213C2.31607 20.5587 2 19.7956 2 19C2 18.2044 2.31607 17.4413 2.87868 16.8787C3.44129 16.3161 4.20435 16 5 16C5.79565 16 6.55871 16.3161 7.12132 16.8787C7.68393 17.4413 8 18.2044 8 19ZM22 19C22 19.7956 21.6839 20.5587 21.1213 21.1213C20.5587 21.6839 19.7956 22 19 22C18.2044 22 17.4413 21.6839 16.8787 21.1213C16.3161 20.5587 16 19.7956 16 19C16 18.2044 16.3161 17.4413 16.8787 16.8787C17.4413 16.3161 18.2044 16 19 16C19.7956 16 20.5587 16.3161 21.1213 16.8787C21.6839 17.4413 22 18.2044 22 19Z" stroke="white" stroke-opacity="0.8" stroke-width="1.5" stroke-linecap="round" stroke-linejoin="round"/>
</svg>
